<svg xmlns="http://www.w3.org/2000/svg" xmlns:xlink="http://www.w3.org/1999/xlink" width="500" zoomAndPan="magnify" viewBox="0 0 375 374.999991" height="500" preserveAspectRatio="xMidYMid meet" version="1.0"><defs><filter x="0%" y="0%" width="100%" height="100%" id="a15f30ee20"><feColorMatrix values="0 0 0 0 1 0 0 0 0 1 0 0 0 0 1 0 0 0 1 0" color-interpolation-filters="sRGB"/></filter><g/><mask id="843a0b48ed"><g filter="url(#a15f30ee20)"><rect x="-37.5" width="450" fill="#000000" y="-37.499999" height="449.999989" fill-opacity="0.8471"/></g></mask><clipPath id="c6b6b6e8f1"><path d="M 1.042969 50 L 130 50 L 130 239 L 1.042969 239 Z M 1.042969 50 " clip-rule="nonzero"/></clipPath><clipPath id="a0b313e848"><path d="M 239 50 L 367.792969 50 L 367.792969 239 L 239 239 Z M 239 50 " clip-rule="nonzero"/></clipPath><clipPath id="0f284404d5"><path d="M 120 2.070312 L 247 2.070312 L 247 287.070312 L 120 287.070312 Z M 120 2.070312 " clip-rule="nonzero"/></clipPath><clipPath id="2027314b4a"><rect x="0" width="368" y="0" height="288"/></clipPath></defs><g mask="url(#843a0b48ed)"><g transform="matrix(1, 0, 0, 1, 3, 43)"><g clip-path="url(#2027314b4a)"><path fill="#5e17eb" d="M 116.75 234.441406 C 114.722656 234.441406 112.726562 233.757812 111.132812 232.488281 L 8.5625 151.710938 C 6.355469 149.976562 5.09375 147.375 5.09375 144.570312 C 5.09375 141.769531 6.355469 139.167969 8.558594 137.414062 L 111.132812 56.65625 C 112.726562 55.386719 114.722656 54.703125 116.75 54.703125 C 119.550781 54.703125 122.167969 55.957031 123.882812 58.171875 C 125.382812 60.078125 126.066406 62.464844 125.773438 64.863281 C 125.492188 67.28125 124.269531 69.433594 122.367188 70.9375 L 28.886719 144.570312 L 122.367188 218.191406 C 124.269531 219.710938 125.492188 221.863281 125.773438 224.261719 C 126.066406 226.679688 125.382812 229.050781 123.882812 230.96875 C 122.167969 233.167969 119.550781 234.441406 116.75 234.441406 " fill-opacity="1" fill-rule="nonzero"/><g clip-path="url(#c6b6b6e8f1)"><path fill="#5e17eb" d="M 116.75 50.832031 C 113.855469 50.832031 111.023438 51.808594 108.75 53.605469 L 6.167969 134.378906 C 3.019531 136.875 1.226562 140.574219 1.226562 144.570312 C 1.226562 148.566406 3.03125 152.285156 6.167969 154.765625 L 108.75 235.539062 C 111.007812 237.320312 113.855469 238.3125 116.75 238.3125 C 120.757812 238.3125 124.472656 236.5 126.933594 233.355469 C 129.082031 230.644531 130.027344 227.253906 129.625 223.8125 C 129.207031 220.375 127.488281 217.292969 124.765625 215.15625 L 35.136719 144.570312 L 124.765625 73.988281 C 127.488281 71.835938 129.207031 68.769531 129.625 65.328125 C 130.027344 61.890625 129.082031 58.5 126.933594 55.773438 C 124.472656 52.628906 120.742188 50.832031 116.75 50.832031 Z M 116.75 58.578125 C 118.296875 58.578125 119.828125 59.257812 120.851562 60.558594 C 122.644531 62.835938 122.242188 66.121094 119.984375 67.902344 L 22.617188 144.570312 L 119.984375 221.242188 C 122.242188 223.023438 122.644531 226.308594 120.851562 228.570312 C 119.828125 229.886719 118.296875 230.566406 116.75 230.566406 C 115.621094 230.566406 114.492188 230.210938 113.53125 229.453125 L 10.953125 148.675781 C 9.699219 147.683594 8.960938 146.167969 8.960938 144.570312 C 8.960938 142.960938 9.699219 141.457031 10.953125 140.46875 L 113.53125 59.691406 C 114.476562 58.933594 115.621094 58.578125 116.75 58.578125 " fill-opacity="1" fill-rule="nonzero"/></g><path fill="#5e17eb" d="M 252.089844 234.441406 C 249.289062 234.441406 246.6875 233.167969 244.941406 230.96875 C 241.84375 227.035156 242.527344 221.304688 246.472656 218.191406 L 339.96875 144.570312 L 246.472656 70.9375 C 242.527344 67.839844 241.84375 62.109375 244.941406 58.171875 C 246.6875 55.957031 249.289062 54.703125 252.089844 54.703125 C 254.117188 54.703125 256.113281 55.386719 257.707031 56.65625 L 360.285156 137.414062 C 362.484375 139.167969 363.738281 141.769531 363.738281 144.570312 C 363.738281 147.375 362.484375 149.976562 360.269531 151.710938 L 257.707031 232.488281 C 256.113281 233.757812 254.117188 234.441406 252.089844 234.441406 " fill-opacity="1" fill-rule="nonzero"/><g clip-path="url(#a0b313e848)"><path fill="#5e17eb" d="M 252.089844 50.832031 C 248.097656 50.832031 244.382812 52.628906 241.90625 55.773438 C 237.480469 61.394531 238.457031 69.558594 244.074219 73.988281 L 333.703125 144.570312 L 244.074219 215.15625 C 238.457031 219.570312 237.480469 227.75 241.90625 233.355469 C 244.382812 236.5 248.097656 238.3125 252.089844 238.3125 C 254.984375 238.3125 257.816406 237.320312 260.089844 235.539062 L 362.667969 154.765625 C 365.8125 152.285156 367.605469 148.566406 367.605469 144.570312 C 367.605469 140.574219 365.8125 136.875 362.683594 134.378906 L 260.105469 53.605469 C 257.832031 51.808594 254.984375 50.832031 252.089844 50.832031 Z M 252.089844 58.578125 C 253.21875 58.578125 254.363281 58.933594 255.308594 59.691406 L 357.886719 140.46875 C 359.140625 141.457031 359.867188 142.960938 359.867188 144.570312 C 359.867188 146.167969 359.140625 147.683594 357.886719 148.675781 L 255.308594 229.453125 C 254.363281 230.210938 253.21875 230.566406 252.089844 230.566406 C 250.542969 230.566406 249.011719 229.886719 247.988281 228.570312 C 246.210938 226.308594 246.597656 223.023438 248.855469 221.242188 L 346.21875 144.570312 L 248.855469 67.902344 C 246.597656 66.121094 246.207031 62.835938 247.988281 60.558594 C 249.011719 59.257812 250.558594 58.578125 252.089844 58.578125 " fill-opacity="1" fill-rule="nonzero"/></g><path fill="#5e17eb" d="M 133.445312 283.183594 C 132.316406 283.183594 131.21875 282.96875 130.167969 282.566406 C 127.90625 281.683594 126.113281 279.976562 125.136719 277.761719 C 124.148438 275.53125 124.101562 273.070312 124.96875 270.808594 L 225.148438 11.769531 C 226.496094 8.296875 229.898438 5.960938 233.613281 5.960938 C 234.742188 5.960938 235.855469 6.175781 236.910156 6.578125 C 241.566406 8.390625 243.902344 13.671875 242.09375 18.351562 L 141.925781 277.375 C 140.582031 280.84375 137.160156 283.183594 133.445312 283.183594 " fill-opacity="1" fill-rule="nonzero"/><g clip-path="url(#0f284404d5)"><path fill="#5e17eb" d="M 233.613281 2.085938 C 228.304688 2.085938 223.445312 5.433594 221.542969 10.375 L 121.363281 269.398438 C 120.125 272.636719 120.199219 276.152344 121.59375 279.328125 C 123 282.488281 125.539062 284.933594 128.773438 286.171875 C 130.273438 286.761719 131.835938 287.054688 133.445312 287.054688 C 138.753906 287.054688 143.613281 283.726562 145.53125 278.769531 L 245.699219 19.746094 C 248.28125 13.070312 244.957031 5.542969 238.285156 2.96875 C 236.800781 2.382812 235.222656 2.085938 233.613281 2.085938 Z M 233.613281 9.832031 C 234.246094 9.832031 234.882812 9.957031 235.5 10.1875 C 238.191406 11.226562 239.523438 14.246094 238.488281 16.941406 L 138.304688 275.964844 C 137.515625 278.042969 135.535156 279.3125 133.445312 279.3125 C 132.8125 279.3125 132.179688 279.203125 131.558594 278.957031 C 128.867188 277.917969 127.535156 274.882812 128.589844 272.203125 L 228.753906 13.175781 C 229.558594 11.101562 231.523438 9.832031 233.613281 9.832031 " fill-opacity="1" fill-rule="nonzero"/></g></g></g></g><g fill="#ffffff" fill-opacity="1"><g transform="translate(25.156456, 186.036895)"><g><path d="M 6.5 -0.0625 L 6.5 -45.703125 L 9.046875 -45.703125 L 40.921875 -14.6875 L 40.921875 -45.703125 L 43.34375 -45.703125 L 43.34375 -0.0625 Z M 6.5 -0.0625 "/></g></g></g><g fill="#ffffff" fill-opacity="1"><g transform="translate(71.183824, 186.036895)"><g><path d="M 43.15625 0 L 8.0625 0 L 8.0625 -45.640625 L 25.84375 -45.640625 C 29.644531 -45.640625 32.75 -44.960938 35.15625 -43.609375 C 37.507812 -42.296875 39.34375 -40.503906 40.65625 -38.234375 C 41.96875 -35.960938 42.625 -33.445312 42.625 -30.6875 C 42.625 -27.28125 41.570312 -24.234375 39.46875 -21.546875 C 37.375 -18.859375 34.734375 -17.078125 31.546875 -16.203125 Z M 12.203125 -43.21875 L 30.03125 -18.296875 C 32.957031 -18.910156 35.382812 -20.375 37.3125 -22.6875 C 39.238281 -25.007812 40.203125 -27.675781 40.203125 -30.6875 C 40.203125 -33.09375 39.609375 -35.28125 38.421875 -37.25 C 37.242188 -39.21875 35.582031 -40.722656 33.4375 -41.765625 C 31.519531 -42.734375 29.007812 -43.21875 25.90625 -43.21875 Z M 10.5 -41.640625 L 10.5 -18.09375 L 27.34375 -18.09375 Z M 10.5 -2.421875 L 38.5625 -2.421875 L 28.984375 -15.734375 L 26.953125 -15.671875 L 10.5 -15.671875 Z M 10.5 -2.421875 "/></g></g></g><g fill="#ffffff" fill-opacity="1"><g transform="translate(117.211191, 186.036895)"><g><path d="M 8.53125 -45.640625 L 40.65625 -45.640625 L 40.65625 -43.21875 L 10.953125 -43.21875 L 10.953125 -24.71875 L 36.796875 -24.71875 L 36.796875 -22.296875 L 10.953125 -22.296875 L 10.953125 -2.421875 L 40.65625 -2.421875 L 40.65625 0 L 8.53125 0 Z M 8.53125 -45.640625 "/></g></g></g><g fill="#ffffff" fill-opacity="1"><g transform="translate(163.238558, 186.036895)"><g><path d="M 6.421875 0 L 6.421875 -45.640625 L 8.984375 -45.640625 L 40.859375 -14.6875 L 40.859375 -45.640625 L 43.28125 -45.640625 L 43.28125 0 L 40.859375 0 L 40.859375 -11.28125 L 8.859375 -42.5 L 8.859375 0 Z M 6.421875 0 "/></g></g></g><g fill="#ffffff" fill-opacity="1"><g transform="translate(209.265925, 186.036895)"><g><path d="M 6.421875 0 L 6.421875 -45.640625 L 8.984375 -45.640625 L 40.859375 -14.6875 L 40.859375 -45.640625 L 43.28125 -45.640625 L 43.28125 0 L 40.859375 0 L 40.859375 -11.28125 L 8.859375 -42.5 L 8.859375 0 Z M 6.421875 0 "/></g></g></g><g fill="#ffffff" fill-opacity="1"><g transform="translate(255.293281, 186.036895)"><g><path d="M 8.53125 -45.640625 L 40.65625 -45.640625 L 40.65625 -43.21875 L 10.953125 -43.21875 L 10.953125 -24.71875 L 36.796875 -24.71875 L 36.796875 -22.296875 L 10.953125 -22.296875 L 10.953125 -2.421875 L 40.65625 -2.421875 L 40.65625 0 L 8.53125 0 Z M 8.53125 -45.640625 "/></g></g></g><g fill="#ffffff" fill-opacity="1"><g transform="translate(301.320637, 186.036895)"><g><path d="M 43.15625 0 L 8.0625 0 L 8.0625 -45.640625 L 25.84375 -45.640625 C 29.644531 -45.640625 32.75 -44.960938 35.15625 -43.609375 C 37.507812 -42.296875 39.34375 -40.503906 40.65625 -38.234375 C 41.96875 -35.960938 42.625 -33.445312 42.625 -30.6875 C 42.625 -27.28125 41.570312 -24.234375 39.46875 -21.546875 C 37.375 -18.859375 34.734375 -17.078125 31.546875 -16.203125 Z M 12.203125 -43.21875 L 30.03125 -18.296875 C 32.957031 -18.910156 35.382812 -20.375 37.3125 -22.6875 C 39.238281 -25.007812 40.203125 -27.675781 40.203125 -30.6875 C 40.203125 -33.09375 39.609375 -35.28125 38.421875 -37.25 C 37.242188 -39.21875 35.582031 -40.722656 33.4375 -41.765625 C 31.519531 -42.734375 29.007812 -43.21875 25.90625 -43.21875 Z M 10.5 -41.640625 L 10.5 -18.09375 L 27.34375 -18.09375 Z M 10.5 -2.421875 L 38.5625 -2.421875 L 28.984375 -15.734375 L 26.953125 -15.671875 L 10.5 -15.671875 Z M 10.5 -2.421875 "/></g></g></g><g fill="#ffffff" fill-opacity="1"><g transform="translate(94.076823, 220.455586)"><g><path d="M 16.859375 -7.191406 C 16.554688 -5.90625 16.277344 -4.644531 16.050781 -3.660156 L 15.242188 -7.21875 L 13.753906 -14.484375 L 9.136719 -14.484375 L 7.671875 -7.242188 L 6.839844 -3.355469 C 6.613281 -4.417969 6.410156 -5.453125 6.03125 -7.191406 L 4.59375 -14.484375 L 0.453125 -14.484375 L 4.0625 0 L 9.109375 0 L 10.648438 -7.21875 C 11.027344 -8.832031 11.257812 -9.917969 11.457031 -10.828125 C 11.734375 -9.617188 11.988281 -8.402344 12.265625 -7.21875 L 13.78125 0 L 18.902344 0 L 22.410156 -14.484375 L 18.273438 -14.484375 Z M 16.859375 -7.191406 "/></g></g></g><g fill="#ffffff" fill-opacity="1"><g transform="translate(115.976509, 220.455586)"><g><path d="M 16.027344 -6.761719 C 16.027344 -11.9375 13.199219 -15.066406 8.554688 -15.066406 C 3.960938 -15.066406 1.007812 -11.886719 1.007812 -7.371094 L 1.007812 -7.34375 C 1.007812 -2.75 4.164062 0.378906 9.035156 0.378906 C 11.863281 0.378906 13.855469 -0.503906 15.320312 -1.414062 L 13.578125 -4.515625 C 12.519531 -3.761719 10.976562 -3.128906 9.210938 -3.128906 C 7.015625 -3.128906 5.578125 -4.542969 5.171875 -6.410156 L 16.027344 -6.410156 Z M 8.53125 -11.8125 C 10.472656 -11.8125 11.632812 -10.550781 11.9375 -8.882812 L 5.199219 -8.882812 C 5.578125 -10.550781 6.789062 -11.8125 8.53125 -11.8125 Z M 8.53125 -11.8125 "/></g></g></g><g fill="#ffffff" fill-opacity="1"><g transform="translate(132.073183, 220.455586)"><g><path d="M 7.949219 0.402344 C 12.894531 0.402344 16 -2.878906 16 -7.320312 L 16 -7.371094 C 16 -11.8125 13.074219 -15.066406 8.125 -15.066406 C 7.191406 -15.066406 6.257812 -14.890625 5.375 -14.6875 L 5.375 -20.46875 L 1.363281 -20.46875 L 1.363281 -1.007812 C 3.433594 0 5.25 0.402344 7.949219 0.402344 Z M 7.949219 -3.179688 C 7.015625 -3.179688 6.15625 -3.304688 5.375 -3.507812 L 5.375 -11.105469 C 6.15625 -11.28125 7.089844 -11.484375 7.949219 -11.484375 C 10.601562 -11.484375 11.960938 -9.691406 11.960938 -7.371094 L 11.960938 -7.320312 C 11.960938 -4.996094 10.601562 -3.179688 7.949219 -3.179688 Z M 7.949219 -3.179688 "/></g></g></g><g fill="#ffffff" fill-opacity="1"><g transform="translate(148.144632, 220.455586)"><g/></g></g><g fill="#ffffff" fill-opacity="1"><g transform="translate(151.449468, 220.455586)"><g><path d="M 9.058594 0.402344 C 11.761719 0.402344 13.578125 0 15.648438 -1.007812 L 15.648438 -20.46875 L 11.660156 -20.46875 L 11.660156 -14.6875 C 10.777344 -14.890625 9.84375 -15.066406 8.910156 -15.066406 C 3.960938 -15.066406 1.035156 -11.8125 1.035156 -7.371094 L 1.035156 -7.320312 C 1.035156 -2.878906 4.113281 0.402344 9.058594 0.402344 Z M 9.058594 -3.179688 C 6.4375 -3.179688 5.046875 -4.996094 5.046875 -7.320312 L 5.046875 -7.371094 C 5.046875 -9.691406 6.4375 -11.484375 9.058594 -11.484375 C 9.945312 -11.484375 10.878906 -11.28125 11.660156 -11.105469 L 11.660156 -3.507812 C 10.878906 -3.304688 10.019531 -3.179688 9.058594 -3.179688 Z M 9.058594 -3.179688 "/></g></g></g><g fill="#ffffff" fill-opacity="1"><g transform="translate(167.52092, 220.455586)"><g><path d="M 16.027344 -6.761719 C 16.027344 -11.9375 13.199219 -15.066406 8.554688 -15.066406 C 3.960938 -15.066406 1.007812 -11.886719 1.007812 -7.371094 L 1.007812 -7.34375 C 1.007812 -2.75 4.164062 0.378906 9.035156 0.378906 C 11.863281 0.378906 13.855469 -0.503906 15.320312 -1.414062 L 13.578125 -4.515625 C 12.519531 -3.761719 10.976562 -3.128906 9.210938 -3.128906 C 7.015625 -3.128906 5.578125 -4.542969 5.171875 -6.410156 L 16.027344 -6.410156 Z M 8.53125 -11.8125 C 10.472656 -11.8125 11.632812 -10.550781 11.9375 -8.882812 L 5.199219 -8.882812 C 5.578125 -10.550781 6.789062 -11.8125 8.53125 -11.8125 Z M 8.53125 -11.8125 "/></g></g></g><g fill="#ffffff" fill-opacity="1"><g transform="translate(183.617594, 220.455586)"><g><path d="M 8 -2.828125 L 4.492188 -14.484375 L 0.304688 -14.484375 L 5.25 0 L 10.75 0 L 15.699219 -14.484375 L 11.507812 -14.484375 Z M 8 -2.828125 "/></g></g></g><g fill="#ffffff" fill-opacity="1"><g transform="translate(198.654586, 220.455586)"><g><path d="M 16.027344 -6.761719 C 16.027344 -11.9375 13.199219 -15.066406 8.554688 -15.066406 C 3.960938 -15.066406 1.007812 -11.886719 1.007812 -7.371094 L 1.007812 -7.34375 C 1.007812 -2.75 4.164062 0.378906 9.035156 0.378906 C 11.863281 0.378906 13.855469 -0.503906 15.320312 -1.414062 L 13.578125 -4.515625 C 12.519531 -3.761719 10.976562 -3.128906 9.210938 -3.128906 C 7.015625 -3.128906 5.578125 -4.542969 5.171875 -6.410156 L 16.027344 -6.410156 Z M 8.53125 -11.8125 C 10.472656 -11.8125 11.632812 -10.550781 11.9375 -8.882812 L 5.199219 -8.882812 C 5.578125 -10.550781 6.789062 -11.8125 8.53125 -11.8125 Z M 8.53125 -11.8125 "/></g></g></g><g fill="#ffffff" fill-opacity="1"><g transform="translate(214.751261, 220.455586)"><g><path d="M 5.375 0 L 5.375 -20.46875 L 1.363281 -20.46875 L 1.363281 0 Z M 5.375 0 "/></g></g></g><g fill="#ffffff" fill-opacity="1"><g transform="translate(220.528673, 220.455586)"><g><path d="M 9.058594 0.402344 C 13.804688 0.402344 17.109375 -2.878906 17.109375 -7.34375 L 17.109375 -7.371094 C 17.109375 -11.8125 13.804688 -15.066406 9.058594 -15.066406 C 4.316406 -15.066406 1.035156 -11.8125 1.035156 -7.371094 L 1.035156 -7.34375 C 1.035156 -2.878906 4.339844 0.402344 9.058594 0.402344 Z M 9.058594 -3.179688 C 6.664062 -3.179688 5.046875 -4.996094 5.046875 -7.34375 L 5.046875 -7.394531 C 5.046875 -9.714844 6.636719 -11.484375 9.058594 -11.484375 C 11.507812 -11.484375 13.074219 -9.714844 13.074219 -7.394531 L 13.074219 -7.34375 C 13.074219 -4.996094 11.484375 -3.179688 9.058594 -3.179688 Z M 9.058594 -3.179688 "/></g></g></g><g fill="#ffffff" fill-opacity="1"><g transform="translate(237.685024, 220.455586)"><g><path d="M 5.375 5.550781 L 5.375 -0.0234375 C 6.257812 0.203125 7.191406 0.378906 8.125 0.378906 C 13.046875 0.378906 16 -2.878906 16 -7.292969 L 16 -7.34375 C 16 -11.785156 12.894531 -15.066406 7.949219 -15.066406 C 5.25 -15.066406 3.105469 -14.386719 1.363281 -13.679688 L 1.363281 5.550781 Z M 7.949219 -3.207031 C 7.089844 -3.207031 6.15625 -3.40625 5.375 -3.609375 L 5.375 -11.179688 C 6.15625 -11.382812 7.015625 -11.484375 7.949219 -11.484375 C 10.601562 -11.484375 11.960938 -9.691406 11.960938 -7.34375 L 11.960938 -7.292969 C 11.960938 -4.972656 10.601562 -3.207031 7.949219 -3.207031 Z M 7.949219 -3.207031 "/></g></g></g><g fill="#ffffff" fill-opacity="1"><g transform="translate(253.756476, 220.455586)"><g><path d="M 16.027344 -6.761719 C 16.027344 -11.9375 13.199219 -15.066406 8.554688 -15.066406 C 3.960938 -15.066406 1.007812 -11.886719 1.007812 -7.371094 L 1.007812 -7.34375 C 1.007812 -2.75 4.164062 0.378906 9.035156 0.378906 C 11.863281 0.378906 13.855469 -0.503906 15.320312 -1.414062 L 13.578125 -4.515625 C 12.519531 -3.761719 10.976562 -3.128906 9.210938 -3.128906 C 7.015625 -3.128906 5.578125 -4.542969 5.171875 -6.410156 L 16.027344 -6.410156 Z M 8.53125 -11.8125 C 10.472656 -11.8125 11.632812 -10.550781 11.9375 -8.882812 L 5.199219 -8.882812 C 5.578125 -10.550781 6.789062 -11.8125 8.53125 -11.8125 Z M 8.53125 -11.8125 "/></g></g></g><g fill="#ffffff" fill-opacity="1"><g transform="translate(269.853151, 220.455586)"><g><path d="M 5.375 0 L 5.375 -10.601562 C 5.703125 -10.675781 7.34375 -10.800781 7.949219 -10.800781 L 10.121094 -10.800781 L 10.121094 -14.484375 L 7.292969 -14.484375 C 5.980469 -14.484375 3.484375 -14.386719 1.363281 -13.929688 L 1.363281 0 Z M 5.375 0 "/></g></g></g></svg>